<mxfile host="app.diagrams.net" modified="2021-12-20T14:45:26.427Z" agent="5.0 (Windows NT 10.0; Win64; x64) AppleWebKit/537.36 (KHTML, like Gecko) Chrome/96.0.4664.110 Safari/537.36" etag="_k-eQi7ZbwIY-FhnggT5" version="15.6.8" type="github">
  <diagram id="VIqUrMfN881pSGvHWkAi" name="Page-1">
    <mxGraphModel dx="1422" dy="740" grid="1" gridSize="10" guides="1" tooltips="1" connect="1" arrows="1" fold="1" page="1" pageScale="1" pageWidth="827" pageHeight="1169" math="0" shadow="0">
      <root>
        <mxCell id="0" />
        <mxCell id="1" parent="0" />
        <mxCell id="ZtJjANbV4Lpw1nc10nZc-3" value="Backend" style="swimlane;align=left;fillColor=#dae8fc;strokeColor=#6c8ebf;" parent="1" vertex="1">
          <mxGeometry x="140" y="30" width="170" height="170" as="geometry" />
        </mxCell>
        <mxCell id="ZtJjANbV4Lpw1nc10nZc-5" value="Business Logic&lt;br&gt;(BL)" style="rounded=0;whiteSpace=wrap;html=1;align=center;fillColor=#ffe6cc;strokeColor=#d79b00;" parent="ZtJjANbV4Lpw1nc10nZc-3" vertex="1">
          <mxGeometry x="50" y="40" width="100" height="40" as="geometry" />
        </mxCell>
        <mxCell id="ZtJjANbV4Lpw1nc10nZc-9" value="REST-Interface" style="rounded=0;whiteSpace=wrap;html=1;align=center;fillColor=#dae8fc;strokeColor=#6c8ebf;" parent="ZtJjANbV4Lpw1nc10nZc-3" vertex="1">
          <mxGeometry x="50" y="110" width="100" height="40" as="geometry" />
        </mxCell>
        <mxCell id="ZtJjANbV4Lpw1nc10nZc-10" value="" style="endArrow=none;startArrow=none;html=1;rounded=0;exitX=0.5;exitY=1;exitDx=0;exitDy=0;entryX=0.5;entryY=0;entryDx=0;entryDy=0;startFill=0;endFill=0;" parent="ZtJjANbV4Lpw1nc10nZc-3" source="ZtJjANbV4Lpw1nc10nZc-5" target="ZtJjANbV4Lpw1nc10nZc-9" edge="1">
          <mxGeometry width="50" height="50" relative="1" as="geometry">
            <mxPoint x="300" y="350" as="sourcePoint" />
            <mxPoint x="350" y="300" as="targetPoint" />
          </mxGeometry>
        </mxCell>
        <mxCell id="ZtJjANbV4Lpw1nc10nZc-6" value="DB" style="shape=cylinder3;whiteSpace=wrap;html=1;boundedLbl=1;backgroundOutline=1;size=15;align=center;fillColor=#ffe6cc;strokeColor=#d79b00;" parent="1" vertex="1">
          <mxGeometry x="10" y="40" width="60" height="80" as="geometry" />
        </mxCell>
        <mxCell id="ZtJjANbV4Lpw1nc10nZc-8" value="" style="endArrow=none;startArrow=none;html=1;rounded=0;exitX=1;exitY=0.5;exitDx=0;exitDy=0;exitPerimeter=0;entryX=0;entryY=0.5;entryDx=0;entryDy=0;endFill=0;startFill=0;" parent="1" source="ZtJjANbV4Lpw1nc10nZc-6" target="ZtJjANbV4Lpw1nc10nZc-5" edge="1">
          <mxGeometry width="50" height="50" relative="1" as="geometry">
            <mxPoint x="460" y="420" as="sourcePoint" />
            <mxPoint x="110" y="110" as="targetPoint" />
          </mxGeometry>
        </mxCell>
        <mxCell id="ZtJjANbV4Lpw1nc10nZc-11" value="Client" style="swimlane;align=center;fillColor=#e1d5e7;strokeColor=#9673a6;verticalAlign=middle;" parent="1" vertex="1">
          <mxGeometry x="510" y="45" width="240" height="225" as="geometry" />
        </mxCell>
        <mxCell id="ZtJjANbV4Lpw1nc10nZc-16" style="edgeStyle=orthogonalEdgeStyle;rounded=0;orthogonalLoop=1;jettySize=auto;html=1;entryX=1;entryY=0.5;entryDx=0;entryDy=0;startArrow=none;startFill=0;endArrow=none;endFill=0;" parent="ZtJjANbV4Lpw1nc10nZc-11" source="ZtJjANbV4Lpw1nc10nZc-13" target="ZtJjANbV4Lpw1nc10nZc-15" edge="1">
          <mxGeometry relative="1" as="geometry" />
        </mxCell>
        <mxCell id="N1tLH85BYtT5_raRtKyt-8" style="edgeStyle=orthogonalEdgeStyle;rounded=0;orthogonalLoop=1;jettySize=auto;html=1;entryX=0.5;entryY=0;entryDx=0;entryDy=0;startArrow=none;startFill=0;endArrow=none;endFill=0;" edge="1" parent="ZtJjANbV4Lpw1nc10nZc-11" source="ZtJjANbV4Lpw1nc10nZc-13" target="N1tLH85BYtT5_raRtKyt-2">
          <mxGeometry relative="1" as="geometry">
            <Array as="points">
              <mxPoint x="190" y="85" />
              <mxPoint x="120" y="85" />
            </Array>
          </mxGeometry>
        </mxCell>
        <mxCell id="ZtJjANbV4Lpw1nc10nZc-13" value="Raspberry PI&lt;br&gt;Ubuntu" style="rounded=0;whiteSpace=wrap;html=1;align=center;fillColor=#f8cecc;strokeColor=#b85450;" parent="ZtJjANbV4Lpw1nc10nZc-11" vertex="1">
          <mxGeometry x="150" y="30" width="80" height="40" as="geometry" />
        </mxCell>
        <mxCell id="ZtJjANbV4Lpw1nc10nZc-15" value="Client Logic" style="rounded=0;whiteSpace=wrap;html=1;align=center;fillColor=#f8cecc;strokeColor=#b85450;" parent="ZtJjANbV4Lpw1nc10nZc-11" vertex="1">
          <mxGeometry x="20" y="30" width="90" height="40" as="geometry" />
        </mxCell>
        <mxCell id="N1tLH85BYtT5_raRtKyt-2" value="Display" style="swimlane;fontStyle=0;childLayout=stackLayout;horizontal=1;startSize=30;horizontalStack=0;resizeParent=1;resizeParentMax=0;resizeLast=0;collapsible=1;marginBottom=0;align=center;verticalAlign=bottom;fillColor=#e1d5e7;strokeColor=#9673a6;" vertex="1" parent="ZtJjANbV4Lpw1nc10nZc-11">
          <mxGeometry x="20" y="105" width="200" height="110" as="geometry" />
        </mxCell>
        <mxCell id="N1tLH85BYtT5_raRtKyt-3" value="Roomnr, class, teacher" style="text;strokeColor=none;fillColor=none;align=left;verticalAlign=middle;spacingLeft=4;spacingRight=4;overflow=hidden;points=[[0,0.5],[1,0.5]];portConstraint=eastwest;rotatable=0;" vertex="1" parent="N1tLH85BYtT5_raRtKyt-2">
          <mxGeometry y="30" width="200" height="20" as="geometry" />
        </mxCell>
        <mxCell id="N1tLH85BYtT5_raRtKyt-4" value="current lesson" style="text;strokeColor=none;fillColor=none;align=left;verticalAlign=middle;spacingLeft=4;spacingRight=4;overflow=hidden;points=[[0,0.5],[1,0.5]];portConstraint=eastwest;rotatable=0;" vertex="1" parent="N1tLH85BYtT5_raRtKyt-2">
          <mxGeometry y="50" width="200" height="20" as="geometry" />
        </mxCell>
        <mxCell id="N1tLH85BYtT5_raRtKyt-5" value="time and date" style="text;strokeColor=none;fillColor=none;align=left;verticalAlign=middle;spacingLeft=4;spacingRight=4;overflow=hidden;points=[[0,0.5],[1,0.5]];portConstraint=eastwest;rotatable=0;" vertex="1" parent="N1tLH85BYtT5_raRtKyt-2">
          <mxGeometry y="70" width="200" height="20" as="geometry" />
        </mxCell>
        <mxCell id="N1tLH85BYtT5_raRtKyt-6" value="QR-Code" style="text;strokeColor=none;fillColor=none;align=left;verticalAlign=middle;spacingLeft=4;spacingRight=4;overflow=hidden;points=[[0,0.5],[1,0.5]];portConstraint=eastwest;rotatable=0;" vertex="1" parent="N1tLH85BYtT5_raRtKyt-2">
          <mxGeometry y="90" width="200" height="20" as="geometry" />
        </mxCell>
        <mxCell id="ZtJjANbV4Lpw1nc10nZc-19" style="edgeStyle=orthogonalEdgeStyle;rounded=0;orthogonalLoop=1;jettySize=auto;html=1;entryX=1;entryY=0.5;entryDx=0;entryDy=0;startArrow=none;startFill=0;endArrow=none;endFill=0;" parent="1" source="ZtJjANbV4Lpw1nc10nZc-15" target="ZtJjANbV4Lpw1nc10nZc-9" edge="1">
          <mxGeometry relative="1" as="geometry">
            <Array as="points">
              <mxPoint x="400" y="95" />
              <mxPoint x="400" y="160" />
            </Array>
          </mxGeometry>
        </mxCell>
      </root>
    </mxGraphModel>
  </diagram>
</mxfile>
